<?xml version="1.0" encoding="utf-8"?>
<svg version="1.1" id="Layer_1" xmlns="http://www.w3.org/2000/svg"
        xmlns:xlink="http://www.w3.org/1999/xlink" x="0px" y="0px" width="506.224px" height="83.673px"
        viewBox="0 0 506.224 83.673" enable-background="new 0 0 506.224 83.673" xml:space="preserve">
    <g>
        <polygon fill="#FFFFFF"
                    points="50.388,50.303 50.388,5.245 5.244,50.387 50.303,50.387 50.303,50.303" />
        <polygon fill="#FFFFFF"
                    points="83.673,83.517 83.673,0 62.637,0 62.636,62.636 0,62.636 0,83.673 83.517,83.673 83.517,83.517" />
    </g>
    <g>
        <path fill="#DFE8E8" d="M104.298,10.53h15.701v58.204h34.802v13.2h-50.503V10.53z" />
        <path fill="#DFE8E8" d="M183.098,10.53h16.102L225.9,81.934H209.6l-5.4-15.901h-26.701l-5.601,15.901h-15.901L183.098,10.53z
M181.598,54.333h18.501l-9-26.202h-0.2L181.598,54.333z" />
        <path fill="#DFE8E8" d="M232.097,10.53h15.601l29.802,47.903h0.2V10.53H292.4v71.404h-15.701l-29.701-47.803h-0.2v47.803h-14.701
V10.53z" />
        <path fill="#DFE8E8" d="M298.796,10.53h56.604v5.8h-24.901v65.604h-6.801V16.33h-24.901V10.53z" />
        <path fill="#DFE8E8" d="M393.499,81.934h-5.8v-9.301h-0.2c-3.301,6.9-10.101,10.801-17.802,10.801
c-13,0-18.101-7.601-18.101-19.601V30.331h6.301v33.602c0.3,9.301,3.8,14.201,13.801,14.201c10.8,0,15.501-10.201,15.501-20.701
V30.331h6.3V81.934z" />
        <path fill="#DFE8E8" d="M405.395,10.53h6.301v29.602h0.2c2.7-7.4,10.2-11.3,17.901-11.3c15.7,0,23.201,12.701,23.201,27.301
c0,14.602-7.501,27.302-23.201,27.302c-8.301,0-15.501-4.3-18.401-11.301h-0.2v9.801h-5.801V10.53z M429.797,34.131
c-13.401,0-18.102,11.3-18.102,22.001c0,10.701,4.7,22.002,18.102,22.002c12,0,16.9-11.301,16.9-22.002
C446.697,45.432,441.797,34.131,429.797,34.131z" />
        <path fill="#DFE8E8" d="M466.494,57.833c0.101,9.2,4.9,20.302,17.001,20.302c9.201,0,14.201-5.4,16.201-13.201h6.301
c-2.7,11.701-9.501,18.501-22.502,18.501c-16.4,0-23.301-12.601-23.301-27.302c0-13.601,6.9-27.301,23.301-27.301
c16.602,0,23.202,14.5,22.702,29.001H466.494z M499.896,52.533c-0.3-9.501-6.2-18.401-16.401-18.401
c-10.3,0-16.001,9-17.001,18.401H499.896z" />
    </g>
</svg>